<?xml version="1.0" encoding="utf-8"?>
<!-- Generator: Adobe Illustrator 19.2.1, SVG Export Plug-In . SVG Version: 6.00 Build 0)  -->
<svg version="1.1" xmlns="http://www.w3.org/2000/svg" xmlns:xlink="http://www.w3.org/1999/xlink" x="0px" y="0px"
	 viewBox="0 0 1280 720" style="enable-background:new 0 0 1280 720;" xml:space="preserve">
<style type="text/css">
	.st0{fill:url(#SVGID_1_);}
	.st1{fill:url(#SVGID_2_);}
	.st2{fill:url(#SVGID_3_);}
	.st3{fill:url(#SVGID_4_);}
	.st4{opacity:0.3;}
	.st5{fill:#371919;}
	.st6{fill:#AFB138;}
	.st7{fill:#828227;}
	.st8{fill:#E2E2E2;}
	.st9{fill:#B7B7B7;}
	.st10{fill:#FFFFFF;}
	.st11{fill:#F2F2F2;}
	.st12{fill:#D3D3D3;}
	.st13{fill:#B75037;}
	.st14{fill:#20667D;}
	.st15{fill:#603026;}
	.st16{fill:#F8AC58;}
	.st17{fill:#CE8F48;}
	.st18{fill:#976441;}
</style>
<g id="sky">
	<linearGradient id="SVGID_1_" gradientUnits="userSpaceOnUse" x1="640" y1="720" x2="640" y2="-2.872730e-008">
		<stop  offset="0" style="stop-color:#FFFFFF"/>
		<stop  offset="1" style="stop-color:#2193C5"/>
	</linearGradient>
	<rect y="0" class="st0" width="1280" height="720"/>
</g>
<g id="hills">
	<linearGradient id="SVGID_2_" gradientUnits="userSpaceOnUse" x1="360" y1="513.4415" x2="1088" y2="513.4415">
		<stop  offset="0" style="stop-color:#DFA132"/>
		<stop  offset="1" style="stop-color:#F9CE68"/>
	</linearGradient>
	<path class="st1" d="M360,584L360,584c198.8-198.8,521.2-198.8,720,0l8,8H360C360,592,363.5,580.5,360,584z"/>
	<linearGradient id="SVGID_3_" gradientUnits="userSpaceOnUse" x1="0" y1="581.8129" x2="1054" y2="581.8129">
		<stop  offset="0" style="stop-color:#DFA132"/>
		<stop  offset="1" style="stop-color:#F9CE68"/>
	</linearGradient>
	<path class="st2" d="M1054,607C725.8,497.5,362.8,443.1,0,443.6V592v16v112h256V607.8L1054,607z"/>
	<linearGradient id="SVGID_4_" gradientUnits="userSpaceOnUse" x1="1280" y1="581.8129" x2="1.240824e-008" y2="581.8129">
		<stop  offset="0" style="stop-color:#DFA132"/>
		<stop  offset="1" style="stop-color:#F9CE68"/>
	</linearGradient>
	<path class="st3" d="M271.5,592L271.5,592c-0.5,0-1,0.1-1.4,0.2C178.1,620.2,80,665,0,720l0,0h1275.1c2.7,0,4.9-2.2,4.9-4.9V608
		v-16V448.5c0-2.7-2.2-4.9-4.9-4.9C931.2,443.6,587.2,492.9,273,591.8C272.5,591.9,272,592,271.5,592z"/>
</g>
<g id="tree">
	<g>
		<g>
			<ellipse class="st4" cx="138.4" cy="503.8" rx="59.5" ry="17.2"/>
			<g>
				<path class="st5" d="M148,499.3l-2.4-13.2c-0.3-1.8-0.5-3.5-0.5-5.3v0c0-5.1,1.3-10,3.7-14.4l7.6-13.6c0.9-1.5,1.8-3,2.9-4.4
					l23.2-28.5l22.2-16.1L179.3,414l-24.8,21l14.8-38l7.4-18.4l22.9-22.2l1.6-7.7l-26.3,22.2l2.7-14.2l19.7-16.4l1.9-5.5l-29,15.6
					l-35.5-5.9l25.6,10.5c3.6,1.5,6,5,6.1,8.9l0.2,6.1l-7.4,28.7l-10.5,27.1l-6-27.4l3.9-30.6l-11.9,14.8v24.2l4.5,18.1l-3.2,29
					l-10.6-19v-24.5l-2.9-31.9l-13.9-27.9l-18.1-15.6l20,32.2l5.8,19l1.6,36.4l-2.6,6.8l-15.8-6.8l-12.9-8.7l-9.7-30.9l5.2,33.8
					l10,9l15.8,11l11,10.4c2.3,2.2,4.3,4.7,5.8,7.5l0.6,1.2c2.3,4.3,3.5,9.2,3.5,14.1v4.6c0,1.4-0.1,2.8-0.3,4.2l-0.4,2.7
					c-0.2,1.4-0.3,2.8-0.3,4.2V500c0,2.1,1.7,3.8,3.8,3.8h12.3C146.6,503.8,148.4,501.6,148,499.3z"/>
				<path class="st6" d="M224.2,363.2c0-0.1-0.1-0.2-0.1-0.3l-4.8-13.6c-0.8-2.4-2.5-4.3-4.5-5.4c2.8-2.5,4.2-6.6,2.8-10.7
					l-4.8-13.6c-2.2-6.3-9.9-8.7-15.3-4.7l-1.8,1.3c-0.1-0.7-0.2-1.4-0.5-2.1l-4.8-13.6c-2.2-6.3-9.9-8.7-15.3-4.7L160,307.1
					c-1.3,1-2.2,2.1-2.9,3.3l-6.2-7.9c-4.6-5.8-13.6-4.8-16.8,1.8l-4.8,10l-6-7.6c-4.6-5.8-13.6-4.8-16.8,1.8l-5.9,12.3
					c-2.4-0.3-5,0.2-7.2,1.9l-15.1,11.2c-6.9,5.1-4.4,15.8,3.7,17.7l-0.7,0.2c-2.4,0.8-4.2,2.5-5.4,4.5c-4.8-3-11.5-1.4-14.2,4.2
					l-6.2,13c-2.9,6,0.9,13.2,7.5,14.2l3.6,0.5l-11,8.2c-7.2,5.4-4.2,16.8,4.8,17.9l3.5,0.4c-1.9,3.3-1.9,7.6,0.6,11l11.2,15.1
					c5.4,7.2,16.8,4.2,17.9-4.8l0.9-7.5l9.4,1.4c0.3,0.1,0.7,0.1,1,0.1c1.2,3.3,4.1,5.9,7.9,6.5l18.6,2.7c8.9,1.3,14.8-8.9,9.3-16
					l-2.6-3.3c0.2,0,0.4,0.1,0.7,0.1l7.4,1.1c0,4.8,3.4,9.2,8.5,9.9l18.6,2.7c8.4,1.2,14.2-7.8,10.1-14.8c0.5,0.2,1.1,0.3,1.7,0.4
					l6.9,0.8l9.3,12.5c5.4,7.2,16.8,4.2,17.9-4.8l2.4-19.8c0.2-1.8-0.1-3.5-0.7-5c5.2,0.9,10.9-2.4,11.7-8.6l2.4-19.8
					C235.5,367.9,230.2,362.8,224.2,363.2z M107.5,362.3l0.6-4.7c0.2-1.4,0-2.8-0.4-4.1c1.6-0.6,3-1.7,4.1-3
					c0.2,1.5,0.8,3.1,1.9,4.4l5.5,7.4l-0.5,1.1C115.4,360.7,111,360.4,107.5,362.3z M168.2,368.1c-0.4-1.1-0.9-2.2-1.7-3.2
					l-9.9-12.6c2.6-1.9,4.2-5,4.1-8.3c0.3,0.2,0.5,0.4,0.8,0.5c0,2,0.6,4.1,2,5.8l11.2,15.1c0.1,0.1,0.1,0.2,0.2,0.3L168.2,368.1z
					 M137.4,392.7l-6.2,13c-0.6,1.3-1,2.7-1,4.1l-1.9-2.4c-4.6-5.8-13.6-4.8-16.8,1.8l-0.7,1.5l-7.7-9.8c4-0.2,7.1-2.7,8.6-6
					l11.4,1.7c5.5,0.8,9.8-2.8,11.1-7.3c1,0.6,2.2,0.9,3.6,1.1l1.1,0.1C138.3,391.2,137.8,391.9,137.4,392.7z M170.2,401.9
					c-2.5-3.2-6.5-4.4-10.1-3.5l-4.5-5.8l2,0.2c3.6,0.4,6.9-1.1,8.9-3.6l7.2,9.7c1.4,1.9,3.3,3.1,5.3,3.7c-1.9,2-2.7,4.6-2.6,7.1
					L170.2,401.9z"/>
				<path class="st7" d="M69.8,389.4l18.6,2.7c8.9,1.3,14.8-8.9,9.3-16l-12.3-15.7c-4.6-5.8-13.6-4.8-16.8,1.8l-6.2,13
					C59.3,381.3,63.1,388.5,69.8,389.4z"/>
				<path class="st7" d="M106,436.8l18.6,2.7c8.9,1.3,14.8-8.9,9.3-16l-12.3-15.7c-4.6-5.8-13.6-4.8-16.8,1.8l-6.2,13
					C95.6,428.7,99.4,435.9,106,436.8z"/>
				<path class="st7" d="M194,389.4l18.6,2.7c8.9,1.3,14.8-8.9,9.3-16l-12.3-15.7c-4.6-5.8-13.6-4.8-16.8,1.8l-6.2,13
					C183.6,381.3,187.4,388.5,194,389.4z"/>
				<path class="st7" d="M108.4,344l18.6,2.7c8.9,1.3,14.8-8.9,9.3-16L123.9,315c-4.6-5.8-13.6-4.8-16.8,1.8l-6.2,13
					C97.9,335.9,101.7,343,108.4,344z"/>
				<path class="st7" d="M151.8,424.6l18.6,2.7c8.9,1.3,14.8-8.9,9.3-16l-12.3-15.7c-4.6-5.8-13.6-4.8-16.8,1.8l-6.2,13
					C141.3,416.5,145.1,423.6,151.8,424.6z"/>
				<path class="st7" d="M130.2,380.6l18.6,2.7c8.9,1.3,14.8-8.9,9.3-16l-12.3-15.7c-4.6-5.8-13.6-4.8-16.8,1.8l-6.2,13
					C119.7,372.5,123.5,379.6,130.2,380.6z"/>
				<path class="st7" d="M183.5,349.7l18.6,2.7c8.9,1.3,14.8-8.9,9.3-16L199,320.7c-4.6-5.8-13.6-4.8-16.8,1.8l-6.2,13
					C173.1,341.6,176.9,348.7,183.5,349.7z"/>
				<path class="st6" d="M185.2,357.5l18.6,2.7c8.9,1.3,14.8-8.9,9.3-16l-12.3-15.7c-4.6-5.8-13.6-4.8-16.8,1.8l-6.2,13
					C174.8,349.4,178.6,356.5,185.2,357.5z"/>
				<path class="st6" d="M126.6,365.5l18.6,2.7c8.9,1.3,14.8-8.9,9.3-16l-12.3-15.7c-4.6-5.8-13.6-4.8-16.8,1.8l-6.2,13
					C116.2,357.4,120,364.5,126.6,365.5z"/>
				<path class="st6" d="M100.6,434l18.6,2.7c8.9,1.3,14.8-8.9,9.3-16L116.1,405c-4.6-5.8-13.6-4.8-16.8,1.8l-6.2,13
					C90.2,425.8,94,433,100.6,434z"/>
				<path class="st6" d="M128.3,375.3l18.6,2.7c8.9,1.3,14.8-8.9,9.3-16l-12.3-15.7c-4.6-5.8-13.6-4.8-16.8,1.8l-6.2,13
					C117.9,367.2,121.6,374.3,128.3,375.3z"/>
				<path class="st6" d="M107.4,396l18.6,2.7c8.9,1.3,14.8-8.9,9.3-16L122.9,367c-4.6-5.8-13.6-4.8-16.8,1.8l-6.2,13
					C97,387.8,100.8,395,107.4,396z"/>
				<path class="st6" d="M194,383l18.6,2.7c8.9,1.3,14.8-8.9,9.3-16l-12.3-15.7c-4.6-5.8-13.6-4.8-16.8,1.8l-6.2,13
					C183.6,374.9,187.4,382.1,194,383z"/>
				<path class="st6" d="M144.8,424.6l18.6,2.7c8.9,1.3,14.8-8.9,9.3-16l-12.3-15.7c-4.6-5.8-13.6-4.8-16.8,1.8l-6.2,13
					C134.4,416.5,138.2,423.6,144.8,424.6z"/>
				<path class="st6" d="M108.7,350.6l18.6,2.7c8.9,1.3,14.8-8.9,9.3-16l-12.3-15.7c-4.6-5.8-13.6-4.8-16.8,1.8l-6.2,13
					C98.2,342.5,102,349.7,108.7,350.6z"/>
				<path class="st6" d="M70.8,396.4l18.6,2.7c8.9,1.3,14.8-8.9,9.3-16l-12.3-15.7c-4.6-5.8-13.6-4.8-16.8,1.8l-6.2,13
					C60.4,388.3,64.2,395.5,70.8,396.4z"/>
			</g>
			<path class="st6" d="M135,415l18.6,2.7c8.9,1.3,14.8-8.9,9.3-16L150.5,386c-4.6-5.8-13.6-4.8-16.8,1.8l-6.2,13
				C124.5,406.8,128.3,414,135,415z"/>
			<path class="st6" d="M106,375l18.6,2.7c8.9,1.3,14.8-8.9,9.3-16L121.5,346c-4.6-5.8-13.6-4.8-16.8,1.8l-6.2,13
				C95.6,366.8,99.4,374,106,375z"/>
		</g>
		<g>
			<ellipse class="st4" cx="726" cy="460.8" rx="30.8" ry="8.9"/>
			<g>
				<path class="st5" d="M730.9,457.9l-1.1-6.2c-0.2-0.9-0.2-1.8-0.2-2.8v0c0-2.6,0.7-5.2,1.9-7.5l3.9-7.1c0.4-0.8,1-1.6,1.5-2.3
					l12-14.8l11.5-8.4l-13.2,5.3l-12.9,10.9l7.7-19.7l3.8-9.5l11.9-11.5l0.8-4l-13.6,11.5l1.4-7.4l10.2-8.5l1-2.8l-15,8.1l-18.4-3.1
					l13.3,5.4c1.9,0.8,3.1,2.6,3.2,4.6l0.1,3.2l-3.8,14.9l-5.4,14l-3.1-14.2l2-15.9l-6.2,7.7v12.5l2.3,9.4l-1.7,15l-5.5-9.9v-12.7
					l-1.5-16.5l-7.2-14.5l-9.4-8.1l10.4,16.7l3,9.9l0.8,18.9l-1.3,3.5l-8.2-3.5l-6.7-4.5l-5-16l2.7,17.5l5.2,4.7l8.2,5.7l5.7,5.4
					c1.2,1.1,2.2,2.5,3,3.9l0.3,0.6c1.2,2.2,1.8,4.7,1.8,7.3v2.4c0,0.7-0.1,1.4-0.2,2.2l-0.2,1.4c-0.1,0.7-0.2,1.4-0.2,2.2v7
					c0,1.4,1.1,2.5,2.5,2.5h5.2C730,460.8,731.1,459.4,730.9,457.9z"/>
				<path class="st6" d="M770.5,388c0-0.1,0-0.1-0.1-0.2l-2.5-7c-0.4-1.3-1.3-2.2-2.3-2.8c1.5-1.3,2.2-3.4,1.4-5.5l-2.5-7
					c-1.2-3.3-5.2-4.5-7.9-2.4l-0.9,0.7c0-0.4-0.1-0.7-0.3-1.1l-2.5-7c-1.2-3.3-5.2-4.5-7.9-2.4l-7.8,5.8c-0.7,0.5-1.2,1.1-1.5,1.7
					l-3.2-4.1c-2.4-3-7-2.5-8.7,1l-2.5,5.2l-3.1-4c-2.4-3-7-2.5-8.7,1l-3.1,6.4c-1.3-0.2-2.6,0.1-3.7,1l-7.8,5.8
					c-3.6,2.7-2.3,8.2,1.9,9.2l-0.3,0.1c-1.3,0.4-2.2,1.3-2.8,2.3c-2.5-1.5-6-0.7-7.4,2.2l-3.2,6.7c-1.5,3.1,0.5,6.8,3.9,7.3
					l1.9,0.3l-5.7,4.2c-3.7,2.8-2.2,8.7,2.5,9.3l1.8,0.2c-1,1.7-1,3.9,0.3,5.7l5.8,7.8c2.8,3.7,8.7,2.2,9.3-2.5l0.5-3.9l4.9,0.7
					c0.2,0,0.4,0,0.5,0c0.6,1.7,2.1,3.1,4.1,3.4l9.6,1.4c4.6,0.7,7.7-4.6,4.8-8.3l-1.3-1.7c0.1,0,0.2,0,0.4,0.1l3.9,0.6
					c0,2.5,1.8,4.8,4.4,5.2l9.6,1.4c4.4,0.6,7.3-4.1,5.2-7.7c0.3,0.1,0.6,0.1,0.9,0.2l3.6,0.4l4.8,6.5c2.8,3.7,8.7,2.2,9.3-2.5
					l1.2-10.3c0.1-0.9,0-1.8-0.4-2.6c2.7,0.5,5.7-1.3,6-4.5l1.2-10.3C776.4,390.4,773.6,387.7,770.5,388z M710,387.5l0.3-2.4
					c0.1-0.7,0-1.5-0.2-2.1c0.8-0.3,1.6-0.9,2.1-1.5c0.1,0.8,0.4,1.6,1,2.3l2.8,3.8l-0.3,0.6C714.1,386.7,711.8,386.5,710,387.5z
					 M741.5,390.5c-0.2-0.6-0.5-1.1-0.9-1.6l-5.1-6.5c1.3-1,2.2-2.6,2.1-4.3c0.1,0.1,0.3,0.2,0.4,0.3c0,1,0.3,2.1,1,3l5.8,7.8
					c0,0,0.1,0.1,0.1,0.1L741.5,390.5z M725.5,403.2l-3.2,6.7c-0.3,0.7-0.5,1.4-0.5,2.1l-1-1.3c-2.4-3-7-2.5-8.7,1l-0.4,0.8l-4-5.1
					c2.1-0.1,3.7-1.4,4.5-3.1l5.9,0.9c2.8,0.4,5.1-1.4,5.7-3.8c0.5,0.3,1.2,0.5,1.8,0.6l0.6,0.1
					C725.9,402.4,725.7,402.8,725.5,403.2z M742.5,408c-1.3-1.7-3.4-2.3-5.2-1.8l-2.3-3l1,0.1c1.9,0.2,3.6-0.6,4.6-1.9l3.7,5
					c0.7,1,1.7,1.6,2.7,1.9c-1,1.1-1.4,2.4-1.4,3.7L742.5,408z"/>
				<path class="st7" d="M690.4,401.5l9.6,1.4c4.6,0.7,7.7-4.6,4.8-8.3l-6.4-8.1c-2.4-3-7-2.5-8.7,1l-3.2,6.7
					C685,397.3,687,401,690.4,401.5z"/>
				<path class="st7" d="M709.2,426.1l9.6,1.4c4.6,0.7,7.7-4.6,4.8-8.3l-6.4-8.1c-2.4-3-7-2.5-8.7,1l-3.2,6.7
					C703.8,421.9,705.8,425.6,709.2,426.1z"/>
				<path class="st7" d="M754.8,401.5l9.6,1.4c4.6,0.7,7.7-4.6,4.8-8.3l-6.4-8.1c-2.4-3-7-2.5-8.7,1l-3.2,6.7
					C749.4,397.3,751.4,401,754.8,401.5z"/>
				<path class="st7" d="M710.4,378l9.6,1.4c4.6,0.7,7.7-4.6,4.8-8.3l-6.4-8.1c-2.4-3-7-2.5-8.7,1l-3.2,6.7
					C705,373.8,707,377.5,710.4,378z"/>
				<path class="st7" d="M732.9,419.8l9.6,1.4c4.6,0.7,7.7-4.6,4.8-8.3l-6.4-8.1c-2.4-3-7-2.5-8.7,1l-3.2,6.7
					C727.5,415.6,729.5,419.3,732.9,419.8z"/>
				<path class="st7" d="M721.7,396.9l9.6,1.4c4.6,0.7,7.7-4.6,4.8-8.3l-6.4-8.1c-2.4-3-7-2.5-8.7,1l-3.2,6.7
					C716.3,392.7,718.3,396.4,721.7,396.9z"/>
				<path class="st7" d="M749.4,380.9l9.6,1.4c4.6,0.7,7.7-4.6,4.8-8.3l-6.4-8.1c-2.4-3-7-2.5-8.7,1l-3.2,6.7
					C744,376.7,745.9,380.4,749.4,380.9z"/>
				<path class="st6" d="M750.3,385l9.6,1.4c4.6,0.7,7.7-4.6,4.8-8.3l-6.4-8.1c-2.4-3-7-2.5-8.7,1l-3.2,6.7
					C744.9,380.8,746.8,384.5,750.3,385z"/>
				<path class="st6" d="M719.9,389.1l9.6,1.4c4.6,0.7,7.7-4.6,4.8-8.3l-6.4-8.1c-2.4-3-7-2.5-8.7,1l-3.2,6.7
					C714.5,384.9,716.5,388.6,719.9,389.1z"/>
				<path class="st6" d="M706.4,424.6l9.6,1.4c4.6,0.7,7.7-4.6,4.8-8.3l-6.4-8.1c-2.4-3-7-2.5-8.7,1l-3.2,6.7
					C701,420.4,703,424.1,706.4,424.6z"/>
				<path class="st6" d="M720.8,394.2l9.6,1.4c4.6,0.7,7.7-4.6,4.8-8.3l-6.4-8.1c-2.4-3-7-2.5-8.7,1l-3.2,6.7
					C715.3,390,717.3,393.7,720.8,394.2z"/>
				<path class="st6" d="M709.9,404.9l9.6,1.4c4.6,0.7,7.7-4.6,4.8-8.3l-6.4-8.1c-2.4-3-7-2.5-8.7,1l-3.2,6.7
					C704.5,400.7,706.5,404.4,709.9,404.9z"/>
				<path class="st6" d="M754.8,398.2l9.6,1.4c4.6,0.7,7.7-4.6,4.8-8.3l-6.4-8.1c-2.4-3-7-2.5-8.7,1l-3.2,6.7
					C749.4,394,751.4,397.7,754.8,398.2z"/>
				<path class="st6" d="M729.3,419.8l9.6,1.4c4.6,0.7,7.7-4.6,4.8-8.3l-6.4-8.1c-2.4-3-7-2.5-8.7,1l-3.2,6.7
					C723.9,415.6,725.9,419.3,729.3,419.8z"/>
				<path class="st6" d="M710.6,381.4l9.6,1.4c4.6,0.7,7.7-4.6,4.8-8.3l-6.4-8.1c-2.4-3-7-2.5-8.7,1l-3.2,6.7
					C705.2,377.2,707.1,380.9,710.6,381.4z"/>
				<path class="st6" d="M691,405.2l9.6,1.4c4.6,0.7,7.7-4.6,4.8-8.3l-6.4-8.1c-2.4-3-7-2.5-8.7,1l-3.2,6.7
					C685.5,401,687.5,404.7,691,405.2z"/>
			</g>
			<path class="st6" d="M724.2,414.8l9.6,1.4c4.6,0.7,7.7-4.6,4.8-8.3l-6.4-8.1c-2.4-3-7-2.5-8.7,1l-3.2,6.7
				C718.8,410.6,720.8,414.3,724.2,414.8z"/>
			<path class="st6" d="M709.2,394l9.6,1.4c4.6,0.7,7.7-4.6,4.8-8.3l-6.4-8.1c-2.4-3-7-2.5-8.7,1l-3.2,6.7
				C703.8,389.8,705.8,393.5,709.2,394z"/>
		</g>
	</g>
	<g>
		<g>
			<path class="st8" d="M826.9,386.2l15.2-10.2c0.4-0.3,0.8,0.3,0.5,0.6l-10.2,9c-0.1,0.1-0.2,0.1-0.3,0.1l-5.1,1.2
				C826.7,386.9,826.6,386.4,826.9,386.2z"/>
			<path class="st8" d="M827.3,387.2l10.2,15.2c0.3,0.4-0.3,0.8-0.6,0.5l-9-10.2c-0.1-0.1-0.1-0.2-0.1-0.3l-1.2-5.1
				C826.6,387,827.1,386.9,827.3,387.2z"/>
			<path class="st9" d="M822.4,451.5l2.7-64.9c0.1-1.4,1.1-1.4,1.1,0l2.7,64.9H822.4z"/>
			<path class="st10" d="M826.4,386.2l1.5,0.5c0.3,0.1,0.3,0.4,0,0.6l-1.5,0.5c-0.3,0.1-0.7,0-0.7-0.3v-1
				C825.7,386.3,826,386.1,826.4,386.2z"/>
			<path class="st8" d="M826.3,387.3l-18-3.6c-0.5-0.1-0.4-0.8,0.1-0.8l13.6,0.8c0.1,0,0.2,0,0.3,0.1l4.4,2.8
				C826.9,386.9,826.7,387.4,826.3,387.3z"/>
		</g>
		<g>
			<path class="st8" d="M874.9,398.8l15.2-10.2c0.4-0.3,0.8,0.3,0.5,0.6l-10.2,9c-0.1,0.1-0.2,0.1-0.3,0.1l-5.1,1.2
				C874.7,399.5,874.6,399,874.9,398.8z"/>
			<path class="st8" d="M875.3,399.8l10.2,15.2c0.3,0.4-0.3,0.8-0.6,0.5l-9-10.2c-0.1-0.1-0.1-0.2-0.1-0.3l-1.2-5.1
				C874.6,399.6,875.1,399.4,875.3,399.8z"/>
			<path class="st9" d="M870.4,464l2.7-64.9c0.1-1.4,1.1-1.4,1.1,0l2.7,64.9H870.4z"/>
			<path class="st10" d="M874.4,398.8l1.5,0.5c0.3,0.1,0.3,0.4,0,0.6l-1.5,0.5c-0.3,0.1-0.7,0-0.7-0.3v-1
				C873.7,398.8,874,398.7,874.4,398.8z"/>
			<path class="st8" d="M874.3,399.8l-18-3.6c-0.5-0.1-0.4-0.8,0.1-0.8l13.6,0.8c0.1,0,0.2,0,0.3,0.1l4.4,2.8
				C874.9,399.5,874.7,399.9,874.3,399.8z"/>
		</g>
		<g>
			<path class="st8" d="M957.2,361.9l25.7-17.2c0.7-0.4,1.4,0.4,0.8,1L966.6,361c-0.1,0.1-0.3,0.2-0.5,0.2l-8.6,2
				C957,363.1,956.7,362.3,957.2,361.9z"/>
			<path class="st8" d="M958,363.5l17.2,25.7c0.4,0.7-0.4,1.4-1,0.8l-15.2-17.2c-0.1-0.1-0.2-0.3-0.2-0.5l-2-8.6
				C956.8,363.3,957.6,363,958,363.5z"/>
			<path class="st9" d="M949.6,472l4.6-109.6c0.1-2.3,1.8-2.3,1.9,0l4.6,109.6H949.6z"/>
			<path class="st10" d="M956.3,361.9l2.6,0.9c0.6,0.2,0.6,0.7,0,0.9l-2.6,0.9c-0.5,0.2-1.1-0.1-1.1-0.5v-1.7
				C955.2,362,955.8,361.8,956.3,361.9z"/>
			<path class="st8" d="M956.2,363.7l-30.3-6.1c-0.8-0.2-0.7-1.3,0.1-1.3l22.9,1.4c0.2,0,0.3,0.1,0.5,0.2l7.4,4.7
				C957.2,363.1,956.8,363.8,956.2,363.7z"/>
		</g>
		<g>
			<path class="st8" d="M1087.9,345.9l25.7-17.2c0.7-0.4,1.4,0.4,0.8,1l-17.2,15.2c-0.1,0.1-0.3,0.2-0.5,0.2l-8.6,2
				C1087.7,347.1,1087.4,346.3,1087.9,345.9z"/>
			<path class="st8" d="M1088.7,347.5l17.2,25.7c0.4,0.7-0.4,1.4-1,0.8l-15.2-17.2c-0.1-0.1-0.2-0.3-0.2-0.5l-2-8.6
				C1087.5,347.3,1088.3,347,1088.7,347.5z"/>
			<path class="st9" d="M1080.3,456l4.6-109.6c0.1-2.3,1.8-2.3,1.9,0l4.6,109.6H1080.3z"/>
			<path class="st10" d="M1087,345.9l2.6,0.9c0.6,0.2,0.6,0.7,0,0.9l-2.6,0.9c-0.5,0.2-1.1-0.1-1.1-0.5v-1.7
				C1085.8,346,1086.5,345.8,1087,345.9z"/>
			<path class="st8" d="M1086.9,347.7l-30.3-6.1c-0.8-0.2-0.7-1.3,0.1-1.3l22.9,1.4c0.2,0,0.3,0.1,0.5,0.2l7.4,4.7
				C1087.9,347.1,1087.5,347.8,1086.9,347.7z"/>
		</g>
		<g>
			<path class="st8" d="M1215.9,337.9l25.7-17.2c0.7-0.4,1.4,0.4,0.8,1l-17.2,15.2c-0.1,0.1-0.3,0.2-0.5,0.2l-8.6,2
				C1215.7,339.1,1215.4,338.3,1215.9,337.9z"/>
			<path class="st8" d="M1216.7,339.5l17.2,25.7c0.4,0.7-0.4,1.4-1,0.8l-15.2-17.2c-0.1-0.1-0.2-0.3-0.2-0.5l-2-8.6
				C1215.5,339.3,1216.3,339,1216.7,339.5z"/>
			<path class="st9" d="M1208.3,448l4.6-109.6c0.1-2.3,1.8-2.3,1.9,0l4.6,109.6H1208.3z"/>
			<path class="st10" d="M1215,337.9l2.6,0.9c0.6,0.2,0.6,0.7,0,0.9l-2.6,0.9c-0.5,0.2-1.1-0.1-1.1-0.5v-1.7
				C1213.8,338,1214.5,337.8,1215,337.9z"/>
			<path class="st8" d="M1214.9,339.7l-30.3-6.1c-0.8-0.2-0.7-1.3,0.1-1.3l22.9,1.4c0.2,0,0.3,0.1,0.5,0.2l7.4,4.7
				C1215.9,339.1,1215.5,339.8,1214.9,339.7z"/>
		</g>
		<path class="st4" d="M945.7,519l-27.3-16.6l42.3-30.5h-11l-32.5,29c0,0-0.1,0-0.1,0l-0.7-0.1l2.9-4.2c0.1-0.1,0.1-0.2,0.1-0.3
			l-3.8-11.1c-0.2-0.3-1.2-0.4-1.2,0l0.6,15.3l-0.7-0.2c-0.6-0.1-0.9,0.1-0.6,0.4l-7.6-2.1c-0.2-0.1-0.3-0.1-0.5-0.1l-25.1,0
			c-0.9,0-1,0.7-0.1,0.8l34.3,2.5c0.1,0,0.3,0,0.4,0l0.5,0.4c0.1,0,0.1,0.1,0.2,0.1c-0.6,0.7,0.1,1.2,1,1l3.1,3.9
			c0,0.1,0.2,0.2,0.4,0.3l24.6,12.3C945.8,520.3,946.5,519.6,945.7,519z"/>
		<path class="st4" d="M1076.4,503l-27.3-16.6l42.3-30.5h-11l-32.5,29c0,0-0.1,0-0.1,0l-0.7-0.1l2.9-4.2c0.1-0.1,0.1-0.2,0.1-0.3
			l-3.8-11.1c-0.2-0.3-1.2-0.4-1.2,0l0.6,15.3l-0.7-0.2c-0.6-0.1-0.9,0.1-0.6,0.4l-7.6-2.1c-0.2-0.1-0.3-0.1-0.5-0.1l-25.1,0
			c-0.9,0-1,0.7-0.1,0.8l34.3,2.5c0.1,0,0.3,0,0.4,0l0.5,0.4c0.1,0,0.1,0.1,0.2,0.1c-0.6,0.7,0.1,1.2,1,1l3.1,3.9
			c0,0.1,0.2,0.2,0.4,0.3l24.6,12.3C1076.5,504.3,1077.2,503.6,1076.4,503z"/>
		<path class="st4" d="M1204.4,495l-27.3-16.6l42.3-30.5h-11l-32.5,29c0,0-0.1,0-0.1,0l-0.7-0.1l2.9-4.2c0.1-0.1,0.1-0.2,0.1-0.3
			l-3.8-11.1c-0.2-0.3-1.2-0.4-1.2,0l0.6,15.3l-0.7-0.2c-0.6-0.1-0.9,0.1-0.6,0.4l-7.6-2.1c-0.2-0.1-0.3-0.1-0.5-0.1l-25.1,0
			c-0.9,0-1,0.7-0.1,0.8l34.3,2.5c0.1,0,0.3,0,0.4,0l0.5,0.4c0.1,0,0.1,0.1,0.2,0.1c-0.6,0.7,0.1,1.2,1,1l3.1,3.9
			c0,0.1,0.2,0.2,0.4,0.3l24.6,12.3C1204.5,496.3,1205.2,495.6,1204.4,495z"/>
		<path class="st4" d="M804.3,469.2l7.6,4.6c-0.8,0.1-1.7,0.2-2.5,0.3l-4-2c-0.1,0-0.2-0.1-0.2-0.2l-1.8-2.3
			c-0.5,0.1-0.9-0.1-0.6-0.6c0,0-0.1,0-0.1-0.1l-0.3-0.2c-0.1,0-0.1,0-0.2,0l-20-1.5c-0.5,0-0.5-0.4,0.1-0.5l14.6,0
			c0.1,0,0.2,0,0.3,0.1l4.4,1.2c-0.2-0.2,0-0.3,0.3-0.2l0.4,0.1l-0.3-8.9c0-0.2,0.6-0.2,0.7,0l2.2,6.5c0,0.1,0,0.1,0,0.1l-1.7,2.5
			l0.4,0.1c0,0,0,0,0.1,0l18.9-16.9h6.4L804.3,469.2z"/>
		<path class="st4" d="M876.9,464l-3,2.2h0c-2.2,0.3-4.4,0.5-6.7,0.8l3.3-3H876.9z"/>
	</g>
	<g>
		<polygon class="st4" points="384,502 360,512 352,520 376,528 476.9,512 		"/>
		<g>
			<rect x="398.7" y="482.7" class="st11" width="78.2" height="29.3"/>
			<polygon class="st12" points="398.7,482.7 398.7,512 387.1,504.3 384,502.2 384,472.9 388.9,468 			"/>
			<polygon class="st13" points="476.9,482.7 467.1,468 388.9,468 398.7,482.7 			"/>
			<rect x="446.3" y="486.3" class="st14" width="12.2" height="17.1"/>
			<rect x="447.6" y="487.6" class="st15" width="9.8" height="14.7"/>
			<rect x="398.7" y="482.7" class="st14" width="78.2" height="2.4"/>
			<rect x="398.7" y="482.7" class="st14" width="2.4" height="29.3"/>
			<rect x="474.4" y="482.7" class="st14" width="2.4" height="29.3"/>
			<rect x="398.7" y="509.6" class="st14" width="78.2" height="2.4"/>
			<path class="st14" d="M423.1,490.8L423.1,490.8c-3.4,0-6.1,2.7-6.1,6.1V512h12.2v-15.1C429.2,493.6,426.5,490.8,423.1,490.8z"/>
			<path class="st15" d="M423.1,492.4L423.1,492.4c-2.7,0-4.9,2.2-4.9,4.9V512h9.8v-14.7C428,494.6,425.8,492.4,423.1,492.4z"/>
			<path class="st14" d="M398.7,509.6"/>
			<path class="st14" d="M398.7,509v-26.3l-1.2-1.8l-8.6-12.8l-3.7,3.7l-1.2,1.2v26.4v1.1v1.8l3.1,2.1l11.5,7.6l0.1,0.1l1.4-2
				L398.7,509z M385.8,500.5l-0.6-0.4v-27.2l3.6-3.6l8.7,13.2v25.6L385.8,500.5z"/>
		</g>
	</g>
</g>
<g id="hay">
	<path class="st4" d="M306.4,539c0,13.4-10.5,24.5-23.7,25.3c-0.6,0-1.1,0-1.7,0h-0.6c0,0,0,0,0,0c-0.9,0-1.7,0-2.6,0
		c-32.8,0-59.5-7.7-59.5-17.2c0-3.1,2.8-6,7.7-8.5c3.6-1.9,8.4-3.5,14.1-4.8c1-0.2,2-0.5,3.1-0.7c4.2-0.9,8.8-1.6,13.7-2.1
		c3.6-0.4,7.3-0.7,11.2-0.9c1.8-0.1,3.7-0.2,5.5-0.2c1.4,0,2.8,0,4.2,0c1.1,0,2.2,0,3.3,0c0.5,0,1.1,0,1.6,0h0
		c2.7,0.1,5.3,0.2,7.8,0.3c2,0.1,3.9,0.3,5.8,0.5c1.1,0.1,2.2,0.2,3.3,0.3c2,0.2,4,0.5,5.9,0.8C306,534.1,306.4,536.5,306.4,539z"/>
	<path class="st16" d="M281,513.5v50.8l-0.5-0.2v0.2l-12.4-3.8l-13.3-4.1l-5.6-1.7l-8.8-2.7v0c-8.9-2.5-15.5-10.6-15.5-20.3
		c0-11.6,9.4-21.1,21.1-21.1c1.1,0,2.1,0.1,3.1,0.3l7.4,0.6l2.3,0.2L281,513.5z"/>
	<path class="st17" d="M306.4,539c0,13.4-10.5,24.5-23.7,25.3c-0.6,0-1.1,0.1-1.7,0.1c-0.1,0-0.3,0-0.5,0h-0.1c0,0,0,0-0.1,0h0
		c0,0,0,0,0,0c-4.8-0.1-9.3-1.6-13-4c-7-4.5-11.7-12.4-11.7-21.4c0-2.8,0.4-5.5,1.3-8c3.1-9.3,11.4-16.3,21.5-17.3
		c0.9-0.1,1.8-0.1,2.6-0.1c11.6,0,21.3,7.7,24.4,18.3C306,534.1,306.4,536.5,306.4,539z"/>
	<path class="st16" d="M288.8,553.8l-9.1,6.9l-14.4-13.3l1.5-16.3c0,0,10.9-8.7,11.6-8.9c0.7-0.2,14.7,0,14.7,0l6.4,8.9l-3.8,12.3
		c0,0-10.9,6.2-11.4,6.4c-0.5,0.2-7.4-6.4-7.4-6.4s5-13.1,5.6-13.4s7.8-0.4,7.8-0.4s1.6,6,0.7,6.9s-8.6,4.9-8.6,4.9l5.8-5.6
		l-0.2-3.6l-5.2,0.4l-3.1,8.9l4,5.5l10.4-5.5l3.1-9l-4.9-8.7l-12.5,1.5l-9.3,7.3l-1.5,13.1l10.8,12L288.8,553.8z"/>
	<path class="st18" d="M254.7,556.5l-5.6-1.7c-5.6-4.7-9.1-11.7-9.1-19.5c0-10.9,6.8-20.1,16.4-23.8l2.3,0.2
		c-9.2,3.8-15.6,12.9-15.6,23.4C243.1,544.1,247.7,552,254.7,556.5z"/>
	<path class="st18" d="M256.7,512.3l-4.6-1.2c-1.2-0.3-1.8-1.7-1.2-2.7l0.6-1.2c0.4-0.7,1.2-1.1,2-1l1.9,0.3
		c0.9,0.1,1.6,0.9,1.6,1.8l0.1,3.7l-0.9-3.4c-0.2-0.7-0.8-1.3-1.5-1.4l-0.5-0.1c-0.8-0.2-1.7,0.2-2.1,0.9h0c-0.6,1-0.1,2.2,0.9,2.7
		L256.7,512.3z"/>
	<path class="st18" d="M257.6,512.1l4.7-1c1.2-0.3,1.9-1.6,1.3-2.7l-0.6-1.2c-0.3-0.7-1.1-1.2-1.9-1.1l-1.9,0.2
		c-0.9,0.1-1.6,0.8-1.7,1.8l-0.3,3.7l1-3.4c0.2-0.7,0.8-1.2,1.5-1.3l0.5-0.1c0.8-0.1,1.6,0.3,2,1h0c0.5,1,0,2.2-1,2.7L257.6,512.1z"
		/>
	<g>
		<path class="st4" d="M658.9,465.9c0,7.6-5.9,13.8-13.4,14.3c-0.3,0-0.6,0-1,0h-0.3c0,0,0,0,0,0c-0.5,0-1,0-1.5,0
			c-18.5,0-33.6-4.3-33.6-9.7c0-1.7,1.6-3.4,4.4-4.8c2.1-1,4.8-2,7.9-2.7c0.6-0.1,1.2-0.3,1.8-0.4c2.4-0.5,5-0.9,7.7-1.2
			c2-0.2,4.1-0.4,6.3-0.5c1-0.1,2.1-0.1,3.1-0.1c0.8,0,1.6,0,2.4,0c0.6,0,1.2,0,1.8,0c0.3,0,0.6,0,0.9,0h0c1.5,0,3,0.1,4.4,0.2
			c1.1,0.1,2.2,0.2,3.3,0.3c0.6,0.1,1.2,0.1,1.8,0.2c1.1,0.1,2.3,0.3,3.3,0.4C658.7,463.2,658.9,464.5,658.9,465.9z"/>
		<g>
			<path class="st16" d="M644.6,451.5v28.7l-0.3-0.1v0.1l-7-2.1l-7.5-2.3l-3.1-0.9l-5-1.5v0c-5-1.4-8.7-6-8.7-11.5
				c0-6.6,5.3-11.9,11.9-11.9c0.6,0,1.2,0.1,1.7,0.1l4.2,0.3l1.3,0.1L644.6,451.5z"/>
			<path class="st17" d="M658.9,465.9c0,7.6-5.9,13.8-13.4,14.3c-0.3,0-0.6,0-1,0c-0.1,0-0.2,0-0.3,0h0c0,0,0,0,0,0h0c0,0,0,0,0,0
				c-2.7-0.1-5.2-0.9-7.4-2.2c-4-2.5-6.6-7-6.6-12.1c0-1.6,0.3-3.1,0.7-4.5c1.7-5.3,6.4-9.2,12.1-9.8c0.5-0.1,1-0.1,1.5-0.1
				c6.5,0,12,4.4,13.8,10.3C658.7,463.2,658.9,464.5,658.9,465.9z"/>
			<path class="st16" d="M649,474.3l-5.1,3.9l-8.1-7.5l0.8-9.2c0,0,6.1-4.9,6.6-5c0.4-0.1,8.3,0,8.3,0l3.6,5l-2.2,7
				c0,0-6.1,3.5-6.5,3.6s-4.2-3.6-4.2-3.6s2.8-7.4,3.2-7.6s4.4-0.2,4.4-0.2s0.9,3.4,0.4,3.9c-0.5,0.5-4.8,2.7-4.8,2.7l3.3-3.2
				l-0.1-2l-2.9,0.2l-1.8,5l2.3,3.1l5.8-3.1l1.7-5.1l-2.8-4.9l-7.1,0.8l-5.2,4.1l-0.9,7.4l6.1,6.8L649,474.3z"/>
			<path class="st18" d="M629.8,475.8l-3.1-0.9c-3.2-2.6-5.2-6.6-5.2-11c0-6.1,3.9-11.4,9.3-13.4l1.3,0.1c-5.2,2.2-8.8,7.3-8.8,13.2
				C623.2,468.8,625.8,473.2,629.8,475.8z"/>
			<path class="st18" d="M630.9,450.9l-2.6-0.7c-0.7-0.2-1-0.9-0.7-1.6l0.3-0.7c0.2-0.4,0.7-0.6,1.1-0.6l1,0.2
				c0.5,0.1,0.9,0.5,0.9,1l0.1,2.1l-0.5-1.9c-0.1-0.4-0.4-0.7-0.8-0.8l-0.3-0.1c-0.5-0.1-0.9,0.1-1.2,0.5h0
				c-0.3,0.6-0.1,1.3,0.5,1.5L630.9,450.9z"/>
			<path class="st18" d="M631.4,450.7l2.6-0.6c0.7-0.2,1-0.9,0.7-1.5l-0.3-0.7c-0.2-0.4-0.6-0.7-1.1-0.6l-1.1,0.1
				c-0.5,0.1-0.9,0.5-1,1l-0.1,2.1l0.6-1.9c0.1-0.4,0.5-0.7,0.9-0.8l0.3,0c0.5-0.1,0.9,0.2,1.1,0.6l0,0c0.3,0.6,0,1.3-0.6,1.5
				L631.4,450.7z"/>
		</g>
	</g>
	<g>
		<path class="st4" d="M1210.6,509.3c0,17.3-13.4,31.4-30.4,32.5c-0.7,0-1.4,0-2.2,0.1h-0.8c0,0,0,0-0.1,0c-1.1,0-2.2,0-3.4,0
			c-42.2,0-76.4-9.9-76.4-22.1c0-4,3.6-7.7,9.9-10.9c4.7-2.4,10.8-4.5,18.1-6.2c1.3-0.3,2.6-0.6,4-0.9c5.4-1.1,11.3-2,17.6-2.7
			c4.6-0.5,9.4-0.9,14.4-1.1c2.3-0.1,4.7-0.2,7.1-0.2c1.8,0,3.6-0.1,5.4-0.1c1.4,0,2.8,0,4.2,0c0.7,0,1.4,0,2.1,0.1h0
			c3.4,0.1,6.8,0.2,10,0.4c2.5,0.2,5,0.4,7.5,0.6c1.4,0.1,2.8,0.3,4.2,0.4c2.6,0.3,5.1,0.6,7.6,1
			C1210.2,503.1,1210.6,506.1,1210.6,509.3z"/>
		<g>
			<path class="st16" d="M1178,476.7v65.2l-0.7-0.2v0.2l-15.9-4.8l-17.1-5.2l-7.1-2.2l-11.3-3.5v0c-11.5-3.2-19.9-13.6-19.9-26.1
				c0-15,12.1-27.1,27.1-27.1c1.3,0,2.7,0.1,4,0.3l9.5,0.8l3,0.2L1178,476.7z"/>
			<path class="st17" d="M1210.6,509.3c0,17.3-13.4,31.4-30.4,32.5c-0.7,0.1-1.4,0.1-2.2,0.1c-0.2,0-0.4,0-0.6,0h-0.1c0,0,0,0-0.1,0
				h0c0,0,0,0-0.1,0c-6.1-0.1-11.9-2-16.7-5.1c-9-5.8-15.1-15.9-15.1-27.5c0-3.6,0.6-7,1.6-10.2c3.9-12,14.6-20.9,27.6-22.2
				c1.1-0.1,2.2-0.2,3.4-0.2c14.9,0,27.4,9.9,31.3,23.5C1210.2,503.1,1210.6,506.1,1210.6,509.3z"/>
			<path class="st16" d="M1188,528.4l-11.7,8.9l-18.5-17l1.9-21c0,0,14-11.2,14.9-11.4s18.9,0,18.9,0l8.2,11.4l-4.9,15.9
				c0,0-14,7.9-14.7,8.2c-0.7,0.2-9.6-8.2-9.6-8.2s6.5-16.8,7.2-17.3c0.7-0.5,10-0.5,10-0.5s2.1,7.7,0.9,8.9c-1.2,1.2-11,6.2-11,6.2
				l7.5-7.2l-0.2-4.7l-6.7,0.5l-4,11.4l5.1,7l13.3-7l4-11.6l-6.3-11.2l-16.1,1.9l-11.9,9.3l-2,16.8l13.9,15.4L1188,528.4z"/>
			<path class="st18" d="M1144.3,531.8l-7.1-2.2c-7.2-6-11.7-15-11.7-25.1c0-13.9,8.8-25.8,21.1-30.5l3,0.2
				c-11.8,4.9-20.1,16.5-20.1,30.1C1129.4,515.9,1135.3,526,1144.3,531.8z"/>
			<path class="st18" d="M1146.9,475.1l-5.9-1.6c-1.5-0.4-2.3-2.1-1.6-3.5l0.8-1.5c0.5-0.9,1.5-1.5,2.6-1.3l2.4,0.4
				c1.2,0.2,2.1,1.2,2.1,2.4l0.1,4.8l-1.1-4.4c-0.2-0.9-1-1.6-1.9-1.8l-0.7-0.1c-1.1-0.2-2.1,0.3-2.7,1.2l0,0
				c-0.7,1.3-0.2,2.9,1.2,3.5L1146.9,475.1z"/>
			<path class="st18" d="M1148,474.8l6-1.3c1.5-0.3,2.4-2,1.7-3.5l-0.7-1.6c-0.4-1-1.5-1.5-2.5-1.4l-2.4,0.3
				c-1.2,0.1-2.1,1.1-2.2,2.3l-0.3,4.8l1.3-4.3c0.3-0.9,1-1.6,2-1.7l0.7-0.1c1.1-0.2,2.1,0.4,2.6,1.3l0,0c0.7,1.3,0,2.9-1.3,3.4
				L1148,474.8z"/>
		</g>
	</g>
</g>
</svg>
